<?xml version="1.0" encoding="UTF-8"?>
<svg width="51px" height="51px" viewBox="0 0 51 51" version="1.1" xmlns="http://www.w3.org/2000/svg" xmlns:xlink="http://www.w3.org/1999/xlink">
    <title>Artboard</title>
    <g id="Artboard" stroke="none" stroke-width="1" fill="none" fill-rule="evenodd">
        <rect id="Rectangle" fill="#F5325A" x="0" y="0" width="51" height="51" rx="18"></rect>
        <path d="M15.75,8.95425658 L28.0898372,20.5239491 C28.3632124,20.7802626 28.6285167,21.0450507 28.8853621,21.3179262 L41.25,34.4542566 C44.4409362,37.8443431 44.279493,43.1793162 40.8894065,46.3702524 C39.4004123,47.7717758 37.4527425,48.5842873 35.4091758,48.6564461 L20.8300009,49.1712399 C10.8950669,49.5220446 2.55682828,41.7525728 2.20602359,31.8176388 C2.19353179,31.463866 2.19147882,31.1098017 2.19986733,30.7559078 L2.58583613,14.4726992 C2.68816147,10.1558091 6.27064344,6.7392293 10.5875336,6.84155464 C12.5095821,6.88711389 14.3474623,7.63925303 15.75,8.95425658 Z" id="Rectangle" fill="#FF587A" opacity="0.492489769"></path>
        <g id="Workflows" transform="translate(8, 12)" fill-rule="nonzero">
            <path d="M27.5575647,1.56485384 C26.8009914,0.811715386 25.5740786,0.811715386 24.8175053,1.56485384 C24.060932,2.31800944 24.060932,3.53913158 24.8175053,4.29228718 L25.3849783,4.85714531 L18.7528635,4.85714531 C16.0806598,4.85714531 13.5970742,6.22735913 12.1808372,8.48286592 L10.7519419,10.7585842 C10.043832,11.8864147 8.80200473,12.5714445 7.46593731,12.5714445 L2.93750269,12.5714445 C1.86745009,12.5714445 1,13.4349317 1,14.5000193 C1,15.5651069 1.86745009,16.4285941 2.93750269,16.4285941 L7.46593731,16.4285941 C8.80200473,16.4285941 10.043832,17.1136238 10.7519419,18.2414544 L12.1808372,20.5171726 C13.5970742,22.7726623 16.0806598,24.1428933 18.7528635,24.1428933 L25.3849783,24.1428933 L24.8175053,24.7077514 C24.060932,25.4608384 24.060932,26.6820977 24.8175053,27.4351847 C25.5740786,28.1882718 26.8009914,28.1882718 27.5575647,27.4351847 L31.43257,23.5780351 C32.1891433,22.8249481 32.1891433,21.6036888 31.43257,20.8506018 L27.5575647,16.9934522 C26.8009914,16.2403652 25.5740786,16.2403652 24.8175053,16.9934522 C24.060932,17.7465392 24.060932,18.9677985 24.8175053,19.7208855 L25.3849783,20.2857437 L18.7528635,20.2857437 C17.4167617,20.2857437 16.1750377,19.6007139 15.466859,18.4728834 L14.0379464,16.1971651 C13.6355142,15.5561926 13.1469019,14.9868773 12.5922767,14.5000193 C13.1469019,14.0131613 13.6355142,13.443846 14.0379464,12.8028735 L15.466859,10.5271552 C16.1750377,9.39939324 17.4167617,8.7142949 18.7528635,8.7142949 L25.3849783,8.7142949 L24.8175053,9.27917017 C24.060932,10.0323258 24.060932,11.2534993 24.8175053,12.0065864 C25.5740786,12.7596734 26.8009914,12.7596734 27.5575647,12.0065864 L31.43257,8.14943677 C32.1891433,7.39628117 32.1891433,6.17515904 31.43257,5.42200344 L27.5575647,1.56485384 Z" id="Path" fill="#C0082E"></path>
            <path d="M26.5575647,0.564853843 C25.8009914,-0.188284614 24.5740786,-0.188284614 23.8175053,0.564853843 C23.060932,1.31800944 23.060932,2.53913158 23.8175053,3.29228718 L24.3849783,3.85714531 L17.7528635,3.85714531 C15.0806598,3.85714531 12.5970742,5.22735913 11.1808372,7.48286592 L9.75194188,9.75858418 C9.04383201,10.8864147 7.80200473,11.5714445 6.46593731,11.5714445 L1.93750269,11.5714445 C0.867450094,11.5714445 0,12.4349317 0,13.5000193 C0,14.5651069 0.867450094,15.4285941 1.93750269,15.4285941 L6.46593731,15.4285941 C7.80200473,15.4285941 9.04383201,16.1136238 9.75194188,17.2414544 L11.1808372,19.5171726 C12.5970742,21.7726623 15.0806598,23.1428933 17.7528635,23.1428933 L24.3849783,23.1428933 L23.8175053,23.7077514 C23.060932,24.4608384 23.060932,25.6820977 23.8175053,26.4351847 C24.5740786,27.1882718 25.8009914,27.1882718 26.5575647,26.4351847 L30.43257,22.5780351 C31.1891433,21.8249481 31.1891433,20.6036888 30.43257,19.8506018 L26.5575647,15.9934522 C25.8009914,15.2403652 24.5740786,15.2403652 23.8175053,15.9934522 C23.060932,16.7465392 23.060932,17.9677985 23.8175053,18.7208855 L24.3849783,19.2857437 L17.7528635,19.2857437 C16.4167617,19.2857437 15.1750377,18.6007139 14.466859,17.4728834 L13.0379464,15.1971651 C12.6355142,14.5561926 12.1469019,13.9868773 11.5922767,13.5000193 C12.1469019,13.0131613 12.6355142,12.443846 13.0379464,11.8028735 L14.466859,9.52715521 C15.1750377,8.39939324 16.4167617,7.7142949 17.7528635,7.7142949 L24.3849783,7.7142949 L23.8175053,8.27917017 C23.060932,9.03232577 23.060932,10.2534993 23.8175053,11.0065864 C24.5740786,11.7596734 25.8009914,11.7596734 26.5575647,11.0065864 L30.43257,7.14943677 C31.1891433,6.39628117 31.1891433,5.17515904 30.43257,4.42200344 L26.5575647,0.564853843 Z" id="Path" fill="#FFFFFF"></path>
        </g>
    </g>
</svg>